<svg id="Capa_1" enable-background="new 0 0 512.023 512.023" height="512" viewBox="0 0 512.023 512.023" width="512" xmlns="http://www.w3.org/2000/svg"><g><path d="m373.937 204.236-3.419-10.257h-146.507l32 110.652c8.306 0 20.502 15.227 29.82 57.962 7.937 36.401 11 79.338 12.172 108.947.898 22.7 19.392 40.482 42.102 40.482 18.621 0 35.26-12.493 40.464-30.382 7.838-26.947 17.182-70.14 17.182-122.879-.001-82.141-22.843-151.608-23.814-154.525z" fill="#cdbfba"/><path d="m141.504 193.98-3.419 10.257c-.972 2.917-23.812 72.384-23.812 154.526 0 52.739 9.344 95.932 17.182 122.879 5.204 17.888 21.843 30.381 40.463 30.381 22.71 0 41.203-17.782 42.102-40.482 1.172-29.609 4.235-72.546 12.172-108.947 9.318-42.735 21.514-57.962 29.82-57.962v-110.652z" fill="#e1d3ce"/><path d="m103.561 5.391c-27.11 5.495-46.735 28.53-47.724 56.018-.711 19.783-.04 46.057 5.219 73.605.934 4.892 10.622 14.768 10.622 14.768s-4.685 10.035-3.073 15.038c10.343 32.118 28.344 63.449 58.951 85.943h128.455l21.333-112.074-21.333-116.448c-20.005-10.167-75.348-32.477-152.45-16.85z" fill="#f7f0eb"/><path d="m456.186 61.409c-.988-27.488-20.613-50.523-47.724-56.018-77.104-15.626-132.446 6.684-152.45 16.85h-.001v228.523h128.455c30.935-22.734 48.992-54.495 59.281-86.973 1.537-4.852-1.069-14.576-1.069-14.576s7.436-9.701 8.348-14.506c5.205-27.438 5.868-53.59 5.16-73.3z" fill="#efe2dd"/><path d="m186.678 103.134h58.667v92.445h-58.667z" fill="#878787"/><path d="m266.678 103.134h58.667v92.445h-58.667z" fill="#666"/><path d="m256.011 114.69v80.889"/><path d="m256.011 88.134h-84.333v46.222h-110.743c1.867 9.911 4.328 19.991 7.528 30h103.216v46.222h84.333l10.667-61.222zm-15 92.445h-39.333v-62.445h39.333z" fill="#b0b0b0"/><path d="m451.088 134.356h-110.743v-46.222h-84.334v122.445h84.334v-46.222h103.215c3.2-10.01 5.661-20.09 7.528-30.001zm-140.743 46.223h-39.334v-62.445h39.334z" fill="#878787"/></g></svg>