<svg id="Capa_1" enable-background="new 0 0 512 512" height="512" viewBox="0 0 512 512" width="512" xmlns="http://www.w3.org/2000/svg"><g><g><path d="m231.464 9.681c-24.084-7.087-54.06-15.907-78.624-3.353-38.97 19.917-71.498 55.547-94.069 103.036-20.535 43.206-31.844 94.986-31.844 145.801 0 57.245 23.855 120.975 63.812 170.478 44.949 55.688 103.64 86.357 165.261 86.357l21.333-256-21.333-240.612c-5.14 0-15-2.901-24.536-5.707z" fill="#f9a7b0"/><path d="m453.228 109.364c-22.57-47.489-55.099-83.118-94.069-103.036v-.001c-24.565-12.554-54.539-3.734-78.624 3.354-9.535 2.806-19.395 5.707-24.536 5.707v496.612c61.621 0 120.312-30.669 165.261-86.358 39.957-49.503 63.811-113.233 63.811-170.478.002-50.814-11.307-102.594-31.843-145.8z" fill="#f68b98"/></g><g><path d="m470.08 256.223s-9.044-42.119-36.94-86.52l-177.14-63.036-32 138.667 32 103.449h159.107c39.69-44.291 54.973-92.56 54.973-92.56z" fill="#ae2538"/><path d="m78.86 169.702c-27.896 44.401-36.94 86.52-36.94 86.52s15.284 48.269 54.973 92.559h159.107v-242.114z" fill="#cc2e43"/></g><g><path d="m256 67.892-10.667 38.773 10.667 29.65c38.323 0 74.329 15.07 88.03 21.55 19.705 9.319 41.392 14.071 63.262 14.071 8.624 0 17.278-.743 25.848-2.233-31.093-49.488-85.606-101.811-177.14-101.811z" fill="#f7f0eb"/><path d="m78.86 169.702c8.57 1.491 17.222 2.233 25.848 2.233 21.868 0 43.559-4.753 63.262-14.071 13.702-6.479 49.707-21.55 88.03-21.55v-68.422c-91.534 0-146.047 52.323-177.14 101.81z" fill="#fff"/></g><g><path d="m357.16 229.019c-12.909-12.909-30.074-20.019-48.33-20.019h-34.572l6.48 36.842c1.242 7.059-2.701 14.102-9.171 16.384-.532.188-.86.265-1.002.294h-14.565l-21.333 46.813 21.333 40.425h87.608l26.02-41.17.336-.671c13.178-26.355 8.032-58.062-12.804-78.898z" fill="#61101b"/><path d="m241.435 262.52c-.142-.029-.47-.106-1.003-.294-6.47-2.281-10.413-9.324-9.17-16.384l6.48-36.842h-34.572c-18.257 0-35.421 7.11-48.331 20.02-20.836 20.835-25.981 52.542-12.804 78.897l.336.671 26.02 41.17h87.609v-87.238z" fill="#8e1e2c"/></g><g><path d="m406.157 345.586c-48.415-17.291-99.286-25.937-150.157-25.936l-21.333 53.684 21.333 47.679c74.283 0 125.463-34.686 159.107-72.23z" fill="#e63950"/><path d="m105.843 345.586-8.95 3.197c33.644 37.544 84.824 72.23 159.107 72.23v-101.363c-50.871 0-101.742 8.645-150.157 25.936z" fill="#ec5569"/></g></g></svg>