<?xml version="1.0" standalone="no"?>
<!DOCTYPE svg PUBLIC "-//W3C//DTD SVG 20010904//EN"
 "http://www.w3.org/TR/2001/REC-SVG-20010904/DTD/svg10.dtd">
<svg version="1.0" xmlns="http://www.w3.org/2000/svg"
 width="700.000000pt" height="700.000000pt" viewBox="0 0 700.000000 700.000000"
 preserveAspectRatio="xMidYMid meet">
<metadata>
Created by potrace 1.11, written by Peter Selinger 2001-2013
</metadata>
<g transform="translate(0.000000,700.000000) scale(0.100000,-0.100000)"
fill="#000000" stroke="none">
<path d="M2670 6993 c-95 -14 -236 -49 -299 -75 -398 -156 -676 -488 -767
-913 -15 -67 -18 -150 -20 -528 -1 -247 -5 -451 -8 -454 -3 -3 -90 -5 -193 -5
l-188 0 -2 -779 -2 -779 195 -2 195 -3 4 -150 c4 -137 7 -184 19 -240 49 -238
153 -438 321 -614 66 -69 176 -159 241 -195 16 -9 49 -28 74 -42 109 -61 331
-127 451 -134 4 0 7 -173 7 -384 l-1 -385 -524 1 c-288 0 -525 -1 -527 -3 -10
-12 -470 -606 -513 -663 -29 -38 -53 -77 -53 -85 -1 -27 -1 -494 -1 -528 l1
-33 2420 0 2420 0 1 33 c0 37 0 529 0 538 -1 5 -230 306 -274 359 -7 8 -50 65
-97 125 -46 61 -89 115 -95 121 -5 6 -30 38 -55 72 -34 47 -51 62 -70 62 -14
1 -250 1 -526 1 l-501 0 0 384 -1 383 45 7 c44 6 60 9 118 21 40 7 122 33 160
48 17 7 46 19 65 27 119 46 284 163 392 278 218 232 326 501 334 836 2 72 3
139 3 150 1 19 8 20 194 20 l192 0 0 775 0 775 -188 2 c-104 0 -191 4 -194 7
-4 3 -6 449 -6 991 l0 985 -1361 -1 c-749 -1 -1372 -4 -1386 -6z"/>
</g>
</svg>
